<svg xmlns="http://www.w3.org/2000/svg" xmlns:xlink="http://www.w3.org/1999/xlink" version="1.1" width="256" height="256" viewBox="0 0 256 256" xml:space="preserve">

<defs>
</defs>
<g style="stroke: none; stroke-width: 0; stroke-dasharray: none; stroke-linecap: butt; stroke-linejoin: miter; stroke-miterlimit: 10; fill: none; fill-rule: nonzero; opacity: 1;" transform="translate(1.4065934065934016 1.4065934065934016) scale(2.81 2.81)" >
	<path d="M 29.661 67.089 c 0 -10.74 8.707 -19.447 19.447 -19.447 c 3.16 0 6.144 0.754 8.783 2.091 l 1.112 -20.54 c 0.201 -2.454 -1.002 -4.811 -3.109 -6.087 l -3.206 -1.942 c -2.415 -1.463 -5.35 -1.773 -8.01 -0.861 c -0.22 0.075 -0.431 0.177 -0.633 0.292 L 44.037 20.6 c -2.55 1.443 -5.737 -0.238 -5.986 -3.157 v 0 c -0.041 -0.485 -0.172 -0.958 -0.384 -1.396 c -2.094 -4.321 -0.616 -9.585 3.522 -12.16 l 2.647 -1.648 c 2.696 -1.678 6.111 -1.662 8.801 0.024 c 19.711 12.361 32.497 37.368 32.3 65.998 C 71.527 82.85 55.754 87.319 38.224 84.267 c -3.631 3.141 -8.437 4.96 -13.67 4.71 C 14.556 88.5 5.462 80.325 5.076 70.323 c -0.428 -11.091 9.437 -20.217 20.432 -20.217 c 3.743 0 7.24 1.058 10.206 2.89" style="stroke: none; stroke-width: 1; stroke-dasharray: none; stroke-linecap: butt; stroke-linejoin: miter; stroke-miterlimit: 10; fill: rgb(221,183,148); fill-rule: nonzero; opacity: 1;" transform=" matrix(1 0 0 1 0 0) " stroke-linecap="round" />
	<path d="M 25.504 90 c -0.332 0 -0.664 -0.008 -0.998 -0.023 c -10.868 -0.52 -20.033 -9.318 -20.43 -19.616 c -0.205 -5.309 1.816 -10.45 5.691 -14.478 c 4.144 -4.307 9.882 -6.777 15.74 -6.777 c 3.548 0 7.017 0.915 10.081 2.655 c 3.606 -3.184 8.341 -5.119 13.519 -5.119 c 2.74 0 5.378 0.526 7.863 1.567 l 1.032 -19.069 c 0.174 -2.117 -0.834 -4.091 -2.628 -5.177 L 52.17 22.02 c -2.164 -1.311 -4.777 -1.592 -7.167 -0.771 c -0.163 0.056 -0.317 0.132 -0.465 0.216 c -1.503 0.85 -3.304 0.878 -4.823 0.076 c -1.519 -0.801 -2.514 -2.302 -2.66 -4.013 c -0.031 -0.364 -0.128 -0.716 -0.288 -1.046 C 34.427 11.655 36.1 5.876 40.66 3.038 l 2.647 -1.648 c 2.993 -1.863 6.862 -1.853 9.861 0.026 c 20.409 12.798 32.965 38.415 32.768 66.852 c -0.002 0.248 -0.096 0.487 -0.264 0.67 C 72.842 82.897 56.98 88.41 38.514 85.331 C 34.841 88.363 30.27 90 25.504 90 z M 25.508 51.106 c -5.318 0 -10.53 2.246 -14.299 6.164 c -3.494 3.632 -5.318 8.254 -5.134 13.015 c 0.358 9.285 8.669 17.223 18.527 17.693 c 4.759 0.235 9.373 -1.359 12.968 -4.467 c 0.227 -0.197 0.531 -0.28 0.826 -0.23 c 18.077 3.148 32.975 -1.895 45.541 -15.413 c 0.076 -27.595 -12.1 -52.382 -31.833 -64.757 c -2.353 -1.475 -5.391 -1.485 -7.741 -0.022 l -2.647 1.648 c -3.688 2.295 -5.042 6.97 -3.15 10.874 c 0.267 0.551 0.428 1.139 0.481 1.747 c 0.089 1.045 0.672 1.925 1.6 2.414 c 0.914 0.482 1.997 0.466 2.897 -0.042 c 0.287 -0.163 0.549 -0.283 0.81 -0.372 c 2.951 -1.012 6.177 -0.667 8.852 0.952 l 3.205 1.942 c 2.447 1.482 3.822 4.174 3.588 7.024 l -1.11 20.512 c -0.019 0.338 -0.206 0.644 -0.499 0.813 c -0.293 0.169 -0.65 0.178 -0.952 0.025 c -2.596 -1.317 -5.398 -1.984 -8.33 -1.984 c -10.172 0 -18.447 8.275 -18.447 18.447 c 0 0.553 -0.448 1 -1 1 c -0.552 0 -1 -0.447 -1 -1 c 0 -5.346 2.062 -10.22 5.433 -13.867 C 31.458 51.834 28.515 51.106 25.508 51.106 z" style="stroke: none; stroke-width: 1; stroke-dasharray: none; stroke-linecap: butt; stroke-linejoin: miter; stroke-miterlimit: 10; fill: rgb(0,0,0); fill-rule: nonzero; opacity: 1;" transform=" matrix(1 0 0 1 0 0) " stroke-linecap="round" />
</g>
</svg>